<svg width="1622" height="289" viewBox="0 0 1622 289" fill="none" xmlns="http://www.w3.org/2000/svg">
<path d="M29 57L203.5 231.5L378 57L552.5 231.5L727 57" stroke="black" stroke-width="80"/>
<path d="M29 231.5L203.5 57L378 231.5L552.5 57L727 231.5" stroke="#4D89FF" stroke-opacity="0.7" stroke-width="80"/>
<path d="M809 207L774.677 81.4774H790.123L816.355 183.71H817.581L844.303 81.4774H861.465L888.187 183.71H889.413L915.645 81.4774H931.09L896.768 207H881.077L853.374 106.974H852.394L824.69 207H809ZM948.068 207V112.858H962.532V207H948.068ZM955.423 97.1677C952.603 97.1677 950.172 96.2075 948.129 94.2871C946.127 92.3667 945.126 90.0581 945.126 87.3613C945.126 84.6645 946.127 82.3559 948.129 80.4355C950.172 78.515 952.603 77.5548 955.423 77.5548C958.242 77.5548 960.653 78.515 962.655 80.4355C964.698 82.3559 965.719 84.6645 965.719 87.3613C965.719 90.0581 964.698 92.3667 962.655 94.2871C960.653 96.2075 958.242 97.1677 955.423 97.1677ZM1002.51 172.677L1002.26 154.781H1005.21L1046.39 112.858H1064.29L1020.41 157.232H1019.18L1002.51 172.677ZM989.025 207V81.4774H1003.49V207H989.025ZM1048.84 207L1012.07 160.419L1022.37 150.368L1067.23 207H1048.84ZM1082.91 207V112.858H1097.37V207H1082.91ZM1090.26 97.1677C1087.44 97.1677 1085.01 96.2075 1082.97 94.2871C1080.97 92.3667 1079.96 90.0581 1079.96 87.3613C1079.96 84.6645 1080.97 82.3559 1082.97 80.4355C1085.01 78.515 1087.44 77.5548 1090.26 77.5548C1093.08 77.5548 1095.49 78.515 1097.49 80.4355C1099.54 82.3559 1100.56 84.6645 1100.56 87.3613C1100.56 90.0581 1099.54 92.3667 1097.49 94.2871C1095.49 96.2075 1093.08 97.1677 1090.26 97.1677ZM1164.56 207H1125.83V81.4774H1166.28C1178.45 81.4774 1188.87 83.9903 1197.53 89.0161C1206.2 94.0011 1212.84 101.172 1217.45 110.529C1222.07 119.845 1224.38 131 1224.38 143.994C1224.38 157.069 1222.05 168.326 1217.39 177.765C1212.73 187.162 1205.95 194.395 1197.04 199.461C1188.14 204.487 1177.31 207 1164.56 207ZM1141.03 193.516H1163.58C1173.96 193.516 1182.56 191.514 1189.38 187.51C1196.21 183.505 1201.29 177.805 1204.64 170.41C1207.99 163.014 1209.67 154.209 1209.67 143.994C1209.67 133.86 1208.02 125.137 1204.71 117.823C1201.4 110.468 1196.45 104.829 1189.87 100.906C1183.29 96.943 1175.1 94.9613 1165.3 94.9613H1141.03V193.516ZM1275.62 209.206C1269.65 209.206 1264.24 208.083 1259.38 205.835C1254.51 203.547 1250.65 200.258 1247.79 195.968C1244.93 191.637 1243.5 186.406 1243.5 180.277C1243.5 174.884 1244.56 170.512 1246.69 167.161C1248.81 163.77 1251.65 161.114 1255.21 159.194C1258.76 157.273 1262.69 155.843 1266.98 154.903C1271.31 153.923 1275.66 153.146 1280.03 152.574C1285.75 151.839 1290.39 151.287 1293.94 150.919C1297.54 150.511 1300.16 149.837 1301.79 148.897C1303.46 147.957 1304.3 146.323 1304.3 143.994V143.503C1304.3 137.456 1302.65 132.757 1299.34 129.406C1296.07 126.056 1291.1 124.381 1284.44 124.381C1277.54 124.381 1272.13 125.892 1268.2 128.916C1264.28 131.94 1261.52 135.168 1259.93 138.6L1246.2 133.697C1248.65 127.976 1251.92 123.523 1256.01 120.335C1260.13 117.108 1264.63 114.86 1269.49 113.594C1274.39 112.286 1279.21 111.632 1283.95 111.632C1286.98 111.632 1290.45 112 1294.37 112.735C1298.34 113.43 1302.16 114.881 1305.83 117.087C1309.55 119.294 1312.64 122.624 1315.09 127.077C1317.54 131.531 1318.77 137.497 1318.77 144.974V207H1304.3V194.252H1303.57C1302.59 196.295 1300.95 198.481 1298.66 200.81C1296.38 203.139 1293.33 205.12 1289.53 206.755C1285.73 208.389 1281.09 209.206 1275.62 209.206ZM1277.83 196.213C1283.55 196.213 1288.37 195.089 1292.29 192.842C1296.25 190.595 1299.24 187.694 1301.24 184.139C1303.28 180.584 1304.3 176.845 1304.3 172.923V159.684C1303.69 160.419 1302.34 161.094 1300.26 161.706C1298.21 162.278 1295.84 162.789 1293.15 163.239C1290.49 163.647 1287.9 164.015 1285.36 164.342C1282.87 164.628 1280.85 164.873 1279.3 165.077C1275.54 165.568 1272.02 166.365 1268.75 167.468C1265.53 168.53 1262.91 170.144 1260.91 172.31C1258.95 174.434 1257.97 177.335 1257.97 181.013C1257.97 186.039 1259.83 189.839 1263.54 192.413C1267.3 194.946 1272.06 196.213 1277.83 196.213ZM1411.85 133.942L1398.86 137.619C1398.04 135.454 1396.84 133.349 1395.24 131.306C1393.69 129.223 1391.56 127.506 1388.87 126.158C1386.17 124.81 1382.72 124.135 1378.51 124.135C1372.75 124.135 1367.95 125.463 1364.11 128.119C1360.31 130.734 1358.41 134.065 1358.41 138.11C1358.41 141.705 1359.71 144.545 1362.33 146.629C1364.94 148.713 1369.03 150.449 1374.59 151.839L1388.56 155.271C1396.98 157.314 1403.25 160.44 1407.38 164.648C1411.5 168.816 1413.57 174.189 1413.57 180.768C1413.57 186.161 1412.02 190.983 1408.91 195.232C1405.85 199.482 1401.55 202.832 1396.04 205.284C1390.52 207.735 1384.11 208.961 1376.79 208.961C1367.19 208.961 1359.24 206.877 1352.95 202.71C1346.66 198.542 1342.68 192.454 1341 184.445L1354.73 181.013C1356.04 186.08 1358.51 189.88 1362.15 192.413C1365.82 194.946 1370.62 196.213 1376.55 196.213C1383.29 196.213 1388.64 194.783 1392.61 191.923C1396.61 189.022 1398.61 185.548 1398.61 181.503C1398.61 178.234 1397.47 175.497 1395.18 173.29C1392.89 171.043 1389.38 169.368 1384.64 168.265L1368.95 164.587C1360.33 162.544 1353.99 159.377 1349.95 155.087C1345.94 150.756 1343.94 145.342 1343.94 138.845C1343.94 133.533 1345.43 128.834 1348.42 124.748C1351.44 120.662 1355.55 117.455 1360.74 115.126C1365.97 112.797 1371.89 111.632 1378.51 111.632C1387.83 111.632 1395.14 113.675 1400.45 117.761C1405.8 121.847 1409.6 127.241 1411.85 133.942ZM1449.81 150.368V207H1435.34V81.4774H1449.81V127.568H1451.03C1453.24 122.705 1456.55 118.844 1460.96 115.984C1465.41 113.083 1471.34 111.632 1478.73 111.632C1485.15 111.632 1490.77 112.919 1495.59 115.494C1500.41 118.027 1504.15 121.929 1506.81 127.2C1509.5 132.43 1510.85 139.09 1510.85 147.181V207H1496.39V148.161C1496.39 140.684 1494.45 134.902 1490.56 130.816C1486.72 126.689 1481.39 124.626 1474.57 124.626C1469.83 124.626 1465.58 125.627 1461.82 127.629C1458.1 129.631 1455.16 132.553 1452.99 136.394C1450.87 140.234 1449.81 144.892 1449.81 150.368ZM1565.02 209.206C1559.05 209.206 1553.64 208.083 1548.77 205.835C1543.91 203.547 1540.05 200.258 1537.19 195.968C1534.33 191.637 1532.9 186.406 1532.9 180.277C1532.9 174.884 1533.96 170.512 1536.09 167.161C1538.21 163.77 1541.05 161.114 1544.61 159.194C1548.16 157.273 1552.08 155.843 1556.37 154.903C1560.71 153.923 1565.06 153.146 1569.43 152.574C1575.15 151.839 1579.79 151.287 1583.34 150.919C1586.94 150.511 1589.55 149.837 1591.19 148.897C1592.86 147.957 1593.7 146.323 1593.7 143.994V143.503C1593.7 137.456 1592.05 132.757 1588.74 129.406C1585.47 126.056 1580.5 124.381 1573.84 124.381C1566.94 124.381 1561.52 125.892 1557.6 128.916C1553.68 131.94 1550.92 135.168 1549.33 138.6L1535.6 133.697C1538.05 127.976 1541.32 123.523 1545.4 120.335C1549.53 117.108 1554.02 114.86 1558.89 113.594C1563.79 112.286 1568.61 111.632 1573.35 111.632C1576.38 111.632 1579.85 112 1583.77 112.735C1587.73 113.43 1591.55 114.881 1595.23 117.087C1598.95 119.294 1602.04 122.624 1604.49 127.077C1606.94 131.531 1608.16 137.497 1608.16 144.974V207H1593.7V194.252H1592.96C1591.98 196.295 1590.35 198.481 1588.06 200.81C1585.77 203.139 1582.73 205.12 1578.93 206.755C1575.13 208.389 1570.49 209.206 1565.02 209.206ZM1567.22 196.213C1572.94 196.213 1577.76 195.089 1581.69 192.842C1585.65 190.595 1588.63 187.694 1590.64 184.139C1592.68 180.584 1593.7 176.845 1593.7 172.923V159.684C1593.09 160.419 1591.74 161.094 1589.65 161.706C1587.61 162.278 1585.24 162.789 1582.55 163.239C1579.89 163.647 1577.29 164.015 1574.76 164.342C1572.27 164.628 1570.25 164.873 1568.69 165.077C1564.93 165.568 1561.42 166.365 1558.15 167.468C1554.92 168.53 1552.31 170.144 1550.31 172.31C1548.35 174.434 1547.36 177.335 1547.36 181.013C1547.36 186.039 1549.22 189.839 1552.94 192.413C1556.7 194.946 1561.46 196.213 1567.22 196.213Z" fill="black"/>
</svg>
